<svg xmlns="http://www.w3.org/2000/svg" width="106" height="28"><g fill="none" fill-rule="evenodd"><g transform="translate(1 2.517)"><circle cx="12.138" cy="12.138" r="12.138" fill="#72BA04"/><path stroke="#FFF" stroke-width=".971" d="M12.138 3.31a8.828 8.828 0 1 0 0 17.656 8.828 8.828 0 0 0 0-17.656Z"/><path fill="#FFF" d="M12.138 8.276a2.2 2.2 0 0 1 1.56.646c.4.4.647.951.647 1.56a2.2 2.2 0 0 1-1.103 1.912v2.503a1.103 1.103 0 1 1-2.208 0v-2.503a2.206 2.206 0 0 1 1.104-4.118"/></g><path fill="#011722" fill-rule="nonzero" d="m40.373 26.045 6.456-16.026h-4.82l-3.636 10.07-3.614-10.07h-4.91l6.433 16.026zm9.093-.114 1.136-2.864h6.16L57.9 25.93h4.728L55.853 9.906h-4.25L44.85 25.93zm6-6.296h-3.568l1.796-4.501zm15.23 6.592c4.524 0 7.456-2.274 7.456-7.388v-8.82h-4.455v8.956c0 2.228-1.16 3.274-2.955 3.274-1.773 0-2.932-1.091-2.932-3.387v-8.843h-4.456v8.934c0 4.978 2.842 7.274 7.342 7.274m22.186-.296v-3.864h-7.706V10.019h-4.41v15.912zm7.933 0V13.884h4.774v-3.865H91.654v3.865h4.751V25.93zM31.504 7V5.362l.639-.702L33.736 7h2.088l-2.466-3.6L35.743.7h-2.061l-2.178 2.556V.7h-1.746V7zm7.506.126c1.944 0 3.402-1.467 3.402-3.276v-.018c0-1.809-1.44-3.258-3.384-3.258s-3.402 1.467-3.402 3.276v.018c0 1.809 1.44 3.258 3.384 3.258m.018-1.575c-.963 0-1.62-.792-1.62-1.701v-.018c0-.909.639-1.683 1.602-1.683s1.611.783 1.611 1.701v.018c0 .909-.639 1.683-1.593 1.683m7.461 1.575c1.944 0 3.402-1.467 3.402-3.276v-.018c0-1.809-1.44-3.258-3.384-3.258s-3.402 1.467-3.402 3.276v.018c0 1.809 1.44 3.258 3.384 3.258m.018-1.575c-.963 0-1.62-.792-1.62-1.701v-.018c0-.909.639-1.683 1.602-1.683S48.1 2.932 48.1 3.85v.018c0 .909-.639 1.683-1.593 1.683M52.537 7V4.75h2.979V3.301h-2.979V2.23h3.294V.7h-5.04V7zm5.841 0V5.092h.774L60.421 7h2.007l-1.503-2.196c.783-.333 1.296-.972 1.296-1.944v-.018c0-.621-.189-1.098-.558-1.467C61.24.952 60.574.7 59.611.7h-2.979V7zm1.161-3.276h-1.161V2.203h1.152c.576 0 .945.252.945.756v.018c0 .459-.351.747-.936.747"/></g></svg>