<svg xmlns="http://www.w3.org/2000/svg" width="132" height="28"><g fill="none" fill-rule="evenodd"><g transform="translate(1 2.517)"><circle cx="12.138" cy="12.138" r="12.138" fill="#72BA04"/><path stroke="#FFF" stroke-width=".971" d="M12.138 3.31a8.828 8.828 0 1 0 0 17.656 8.828 8.828 0 0 0 0-17.656Z"/><path fill="#FFF" d="M12.138 8.276a2.2 2.2 0 0 1 1.56.646c.4.4.647.951.647 1.56a2.2 2.2 0 0 1-1.103 1.912v2.503a1.103 1.103 0 1 1-2.208 0v-2.503a2.206 2.206 0 0 1 1.104-4.118Z"/></g><path fill="#011722" fill-rule="nonzero" d="m40.373 26.045 6.456-16.026h-4.82l-3.636 10.07-3.614-10.07h-4.91l6.433 16.026h4.091Zm9.093-.114 1.136-2.864h6.16L57.9 25.93h4.728L55.853 9.906h-4.25L44.85 25.93h4.615Zm6-6.296h-3.568l1.796-4.501 1.773 4.5Zm15.23 6.592c4.524 0 7.456-2.274 7.456-7.388v-8.82h-4.455v8.956c0 2.228-1.16 3.274-2.955 3.274-1.773 0-2.932-1.091-2.932-3.387v-8.843h-4.456v8.934c0 4.978 2.842 7.274 7.342 7.274Zm22.186-.296v-3.864h-7.706V10.019h-4.41v15.912h12.116Zm7.933 0V13.884h4.774v-3.865H91.654v3.865h4.751V25.93h4.41ZM31.504 7V5.362l.639-.702L33.736 7h2.088l-2.466-3.6L35.743.7h-2.061l-2.178 2.556V.7h-1.746V7h1.746Zm7.506.126c1.944 0 3.402-1.467 3.402-3.276v-.018c0-1.809-1.44-3.258-3.384-3.258s-3.402 1.467-3.402 3.276v.018c0 1.809 1.44 3.258 3.384 3.258Zm.018-1.575c-.963 0-1.62-.792-1.62-1.701v-.018c0-.909.639-1.683 1.602-1.683.963 0 1.611.783 1.611 1.701v.018c0 .909-.639 1.683-1.593 1.683Zm7.461 1.575c1.944 0 3.402-1.467 3.402-3.276v-.018c0-1.809-1.44-3.258-3.384-3.258s-3.402 1.467-3.402 3.276v.018c0 1.809 1.44 3.258 3.384 3.258Zm.018-1.575c-.963 0-1.62-.792-1.62-1.701v-.018c0-.909.639-1.683 1.602-1.683.963 0 1.611.783 1.611 1.701v.018c0 .909-.639 1.683-1.593 1.683ZM52.537 7V4.75h2.979V3.301h-2.979V2.23h3.294V.7h-5.04V7h1.746Zm5.841 0V5.092h.774L60.421 7h2.007l-1.503-2.196c.783-.333 1.296-.972 1.296-1.944v-.018c0-.621-.189-1.098-.558-1.467C61.24.952 60.574.7 59.611.7h-2.979V7h1.746Zm1.161-3.276h-1.161V2.203h1.152c.576 0 .945.252.945.756v.018c0 .459-.351.747-.936.747Z"/><path fill="#72BA04" fill-rule="nonzero" d="M110.87 26.1c1.27 0 2.44-.98 2.44-2.77v-.02c0-1.79-1.19-2.77-2.44-2.77-.79 0-1.3.37-1.67.87V18.7h-1.52V26h1.52v-.7c.36.43.86.8 1.67.8Zm-.39-1.29c-.71 0-1.3-.59-1.3-1.48v-.02c0-.89.59-1.48 1.3-1.48.71 0 1.31.59 1.31 1.48v.02c0 .9-.6 1.48-1.31 1.48Zm6.49 1.31c.97 0 1.69-.38 2.19-1l-.87-.77c-.42.39-.79.55-1.3.55-.68 0-1.16-.36-1.31-1.05h3.73c.01-.14.02-.28.02-.4 0-1.52-.82-2.91-2.61-2.91-1.56 0-2.65 1.26-2.65 2.79v.02c0 1.64 1.19 2.77 2.8 2.77Zm.98-3.22h-2.29c.12-.69.53-1.14 1.16-1.14.64 0 1.04.46 1.13 1.14Zm4.42 3.19c.51 0 .88-.12 1.2-.31v-1.22c-.22.12-.47.19-.75.19-.34 0-.49-.17-.49-.52v-2.29h1.26v-1.3h-1.26v-1.37h-1.52v1.37h-.64v1.3h.64v2.54c0 1.24.63 1.61 1.56 1.61Zm3.86.01c.74 0 1.25-.27 1.62-.68V26h1.47v-3.11c0-.72-.18-1.31-.58-1.71-.38-.38-.98-.6-1.81-.6-.91 0-1.49.17-2.08.43l.38 1.16c.49-.18.9-.29 1.48-.29.76 0 1.15.35 1.15.98v.09c-.38-.13-.77-.22-1.31-.22-1.27 0-2.16.54-2.16 1.71v.02c0 1.06.83 1.64 1.84 1.64Zm.46-1.05c-.49 0-.83-.24-.83-.65v-.02c0-.48.4-.74 1.05-.74.37 0 .71.08.97.2v.27c0 .55-.48.94-1.19.94Z"/></g></svg>