<svg width="314" height="220" fill="none" xmlns="http://www.w3.org/2000/svg"><g clip-path="url(#clip0_703_74)"><mask id="a" style="mask-type:luminance" maskUnits="userSpaceOnUse" x="0" y="0" width="314" height="220"><path d="M313.5.89H.5v219h313V.89z" fill="#fff"/></mask><g mask="url(#a)"><path d="M289.927 132.944l22.918 13.074m-170.906 73.218l170.906-99.367m-244.9 30.072l120.486 69.295" stroke="#393939" stroke-width="1.3"/><path d="M90.376 135.706l.538.001-.075 26.825 73.609 42.429.074-25.911.852.002-.077 26.885-.422.251-74.889-43.165.076-27.132.314-.185z" fill="#E4E4E4"/><path d="M114.145 121.868l-24.081 14.019-.002.489 74.887 43.166 59.511-34.572.003-.489-.016-.009-35.995-20.953c-10.545-5.829-22.78-8.895-36.708-9.205-13.926-.309-26.461 2.208-37.599 7.554zm38.257-6.687c13.514.39 25.389 3.416 35.629 9.077l35.159 20.466-58.243 33.836-73.61-42.431 23.207-13.51c10.983-5.271 23.385-7.762 37.181-7.455l.677.017zm21.29-76.397L134.315 16.09 74.298 50.91l37.02 21.203c11.34 6.207 24.085 9.308 38.236 9.308l.673-.003c13.882-.096 26.403-3.197 37.556-9.3l33.4-19.333 6.088 3.603-32.903 18.983c-10.666 6.558-16.008 14.041-15.974 22.447.034 8.404 5.435 15.886 16.142 22.438l36.455 20.969 59.513-34.574.004-.493-38.743-22.218 12.8-7.386c4.286-3.244 6.437-6.497 6.451-9.798.013-3.302-2.113-6.556-6.33-9.77L219.622 31.05c-5.699-2.327-11.148-3.517-16.399-3.592l-.508-.004c-5.075-.004-9.96 1.039-14.651 3.127l-14.372 8.203zM76 50.905l58.317-33.835 39.373 22.695 14.759-8.427a34.732 34.732 0 0114.762-3.03c5.14.073 10.485 1.24 16.037 3.504l44.967 25.88c3.98 3.038 5.961 6.071 5.949 9.062-.012 2.99-2.019 6.025-6.069 9.094l-14.035 8.096 39.172 22.464-58.244 33.835-36.017-20.717c-10.469-6.406-15.693-13.643-15.726-21.71-.032-8.068 5.133-15.303 15.56-21.715l34.151-19.703-7.768-4.597-33.823 19.577c-11.195 6.127-23.8 9.194-37.811 9.194l-.666-.002c-13.745-.096-26.127-3.162-37.153-9.197L76 50.905z" fill="#E4E4E4"/><path d="M290.508 106.412v26.885l-59.512 34.527-.047.031-.46-.27v-26.85h.851v25.905l58.316-33.833v-26.395h.852z" fill="#E4E4E4"/><path d="M224.242 163.177l6.953 3.83-.411.745-6.954-3.831.412-.744z" fill="#E4E4E4"/><path d="M224.461 144.485v27.129l-59.582 34.571-.43-.24v-3.809h.851v2.82l58.31-33.831v-25.671l-3.699 2.098-.421-.739 4.524-2.564.024-.014.423.25zm46.555-77.843v28.804h-.851V66.642h.851zM75.574 50.908v26.124l35.772 20.974 8.463 3.97c10.586 3.423 20.48 5.133 29.681 5.134 8.992.001 18.645-1.631 28.96-4.898l.72-.231.263.809c-10.667 3.447-20.648 5.171-29.943 5.17-9.088-.001-18.833-1.651-29.279-4.966l-.714-.229-8.548-4.008-36.226-21.24V50.909h.851z" fill="#E4E4E4"/><path fill-rule="evenodd" clip-rule="evenodd" d="M1.81 36.845v26.766l74.648 43.183V79.92L1.81 36.845z" fill="#9ADEFD"/><path d="M.5 36.092v28.022l75.286 43.737.213.12 1.769-1.029v-28.12L2.178 35.018.5 36.092zm2.816 2.846l71.636 41.511v23.656L3.316 62.487v-23.55z" fill="#011722"/><path fill-rule="evenodd" clip-rule="evenodd" d="M113.128 47.305v19.94l-.076 5.859c-.086 3.873-1.635 7.794-4.646 11.762-3.012 3.968-6.677 6.976-10.995 9.024l-20.953 12.25V79.496" fill="#1683FB"/><path d="M114.437 45.344v22.009l-.076 5.895c-.095 4.21-1.777 8.426-5.002 12.633-3.09 4.032-6.842 7.129-11.243 9.277l-.37.176-21.731 12.627-1.52-.862V79.635h2.838v24.297l19.035-11.065.108-.056c4.17-1.96 7.708-4.834 10.625-8.64 2.8-3.653 4.257-7.209 4.411-10.668l.01-.305.076-5.863V45.344h2.839z" fill="#011722"/><path fill-rule="evenodd" clip-rule="evenodd" d="M1.81 37.075l5.614-3.243 53.622-30.98 37.937 21.787c9.43 6.51 14.145 13.727 14.145 21.648 0 7.922-5.235 15.078-15.705 21.47L76.281 79.992 1.81 37.075z" fill="#71BA05"/><path d="M99.625 23.09L61.078.89.5 35.987l.011 1.527 75.767 43.785 21.794-12.648c10.85-6.641 16.365-14.203 16.365-22.69 0-8.442-4.961-16.056-14.714-22.809l-.098-.062zM61.08 4.134l37.09 21.359-.048-.033c9.059 6.272 13.504 13.095 13.504 20.501l-.002.257c-.113 7.26-5.043 13.931-14.992 20.022L76.275 78.052 4.795 36.744 61.08 4.135z" fill="#011722"/><path d="M85.625 55.15c5.787 0 10.477-4.683 10.477-10.46 0-5.776-4.69-10.46-10.477-10.46-5.786 0-10.477 4.684-10.477 10.46 0 5.777 4.691 10.46 10.477 10.46z" fill="#72BA04"/><path fill-rule="evenodd" clip-rule="evenodd" d="M70.284 36.462a3.515 3.515 0 011.026 2.57 3.795 3.795 0 01-1.125 2.613 3.807 3.807 0 01-2.617 1.123 3.643 3.643 0 01-.948-.105l-3.05 3.044a1.803 1.803 0 01-2.547 0 1.796 1.796 0 010-2.543l3.05-3.044c-.304-1.217.04-2.582 1.019-3.56 1.46-1.458 3.785-1.503 5.192-.099z" fill="#011722"/></g></g><defs><clipPath id="clip0_703_74"><path fill="#fff" d="M0 0h314v220H0z"/></clipPath></defs></svg>