<svg xmlns="http://www.w3.org/2000/svg" width="186" height="47" fill="none"><path fill="#72BA04" d="M22.191 46.845c11.833 0 21.426-9.705 21.426-21.675 0-11.971-9.593-21.675-21.426-21.675C10.358 3.495.766 13.199.766 25.17c0 11.97 9.592 21.675 21.425 21.675Z"/><path stroke="#fff" stroke-width=".971" d="M22.19 9.405a15.492 15.492 0 0 0-11.019 4.618A15.858 15.858 0 0 0 6.607 25.17c0 4.18 1.642 8.19 4.564 11.147a15.492 15.492 0 0 0 11.02 4.617c4.132 0 8.096-1.661 11.018-4.617a15.858 15.858 0 0 0 4.564-11.147c0-4.181-1.642-8.191-4.564-11.148A15.493 15.493 0 0 0 22.19 9.405Z" clip-rule="evenodd"/><path fill="#fff" fill-rule="evenodd" d="M22.19 18.273a3.88 3.88 0 0 1 2.754 1.154 3.949 3.949 0 0 1 1.142 2.786 3.964 3.964 0 0 1-.52 1.972 3.905 3.905 0 0 1-1.427 1.442v4.47c0 .522-.205 1.024-.57 1.394a1.938 1.938 0 0 1-2.756 0 1.983 1.983 0 0 1-.571-1.394v-4.47a3.925 3.925 0 0 1-1.655-1.904 3.982 3.982 0 0 1-.164-2.53 3.942 3.942 0 0 1 1.393-2.108 3.865 3.865 0 0 1 2.375-.812Z" clip-rule="evenodd"/><path fill="#E4E4E4" d="M70.264 45.509 81.66 16.89h-8.508l-6.418 17.982-6.38-17.982h-8.666l11.355 28.618h7.221Zm16.05-.204 2.006-5.114h10.873l2.009 5.112h8.346L97.589 16.69h-7.502l-11.92 28.614h8.146l.002.002Zm10.592-11.243h-6.298l3.17-8.037 3.13 8.036-.002.001Zm26.883 11.772c7.986 0 13.161-4.06 13.161-13.193v-15.75h-7.864v15.993c0 3.978-2.047 5.846-5.216 5.846-3.129 0-5.175-1.948-5.175-6.048V16.891h-7.866v15.954c0 8.889 5.017 12.989 12.96 12.989Zm39.162-.529v-6.9h-13.602V16.891h-7.785v28.414h21.387Zm14.003 0V23.793h8.427V16.89h-24.598v6.902h8.386v21.51l7.785.002ZM54.609 11.5V8.575l1.128-1.254L58.55 11.5h3.686l-4.354-6.43 4.21-4.82h-3.638l-3.845 4.564V.25h-3.082V11.5h3.082Zm13.25.225c3.431 0 6.005-2.62 6.005-5.85v-.032c0-3.23-2.542-5.818-5.974-5.818-3.431 0-6.005 2.62-6.005 5.85v.032c0 3.23 2.542 5.818 5.974 5.818Zm.031-2.813c-1.7 0-2.86-1.414-2.86-3.037v-.032c0-1.623 1.129-3.006 2.829-3.006 1.7 0 2.843 1.399 2.843 3.038v.032c0 1.623-1.128 3.005-2.812 3.005Zm13.17 2.813c3.431 0 6.005-2.62 6.005-5.85v-.032c0-3.23-2.542-5.818-5.973-5.818-3.432 0-6.005 2.62-6.005 5.85v.032c0 3.23 2.542 5.818 5.973 5.818Zm.032-2.813c-1.7 0-2.86-1.414-2.86-3.037v-.032c0-1.623 1.128-3.006 2.828-3.006s2.844 1.399 2.844 3.038v.032c0 1.623-1.128 3.005-2.812 3.005ZM91.736 11.5V7.482h5.258V4.895h-5.258V2.982h5.814V.25h-8.896V11.5h3.082Zm10.31 0V8.093h1.366l2.24 3.407h3.543l-2.653-3.922c1.382-.594 2.287-1.735 2.287-3.471v-.032c0-1.109-.333-1.96-.984-2.62C107.098.7 105.922.25 104.222.25h-5.258V11.5h3.082Zm2.049-5.85h-2.049V2.934h2.033c1.017 0 1.669.45 1.669 1.35v.032c0 .82-.62 1.334-1.653 1.334Z"/></svg>