<svg xmlns="http://www.w3.org/2000/svg" width="18" height="18" fill="none"><g fill="#263238"><path d="m.576 10.682 2.005-9.021C2.716 1.05 3.34.558 3.954.558h10.092c.623 0 1.237.488 1.373 1.103l2.005 9.021v4.51a2.248 2.248 0 0 1-2.243 2.25H2.82a2.24 2.24 0 0 1-2.244-2.25v-4.51Zm1.485.063c-.02.085-.022.628-.022.973v3.473c0 .442.346.788.78.788h12.362c.43 0 .78-.353.78-.788v-3.895s.003-.44-.013-.513l-1.956-8.805c.012.058-.006.043.054.043H3.954c.067 0 .04.021.055-.043L2.06 10.745Zm11.707 3.658a.844.844 0 1 1 0-1.688.844.844 0 0 1 0 1.688Zm-3.375 0a.844.844 0 1 1 0-1.688.844.844 0 0 1 0 1.688Z"/><path fill-rule="evenodd" d="M1.685 11.026h15.358V9.563H.954v1.463h.731Z" clip-rule="evenodd"/></g></svg>