<svg xmlns="http://www.w3.org/2000/svg" width="18" height="18"><g fill="none" fill-rule="evenodd"><path d="M0 0h18v18H0z"/><path fill="#676F73" fill-rule="nonzero" d="M8.991 4.325c.404 0 .732.328.732.732l-.001 3.211h3.213c.37 0 .676.276.725.633l.006.099a.731.731 0 0 1-.731.731H9.722v3.212a.73.73 0 0 1-.631.725l-.1.007a.731.731 0 0 1-.73-.732L8.26 9.73l-3.212.001a.731.731 0 0 1-.725-.632L4.317 9a.73.73 0 0 1 .731-.731H8.26V5.056c0-.37.275-.677.632-.725Z"/><path fill="#676F73" fill-rule="nonzero" d="M15.98 9A6.98 6.98 0 1 0 2.02 9a6.98 6.98 0 0 0 13.96 0ZM.557 9a8.442 8.442 0 1 1 16.884 0A8.442 8.442 0 0 1 .558 9Z"/></g></svg>