<svg xmlns="http://www.w3.org/2000/svg" width="18" height="18" fill="none"><g fill="#676F73"><path d="M4.297 7.546H2.902l.002 8.415h12.193V6.995h1.463v9.267c0 .642-.52 1.163-1.163 1.163H2.603c-.642 0-1.163-.52-1.163-1.163V7.246c0-.642.52-1.163 1.163-1.163h1.694v1.463Z"/><path d="M4.938 11.389H3.476V1.139c0-.316.258-.581.577-.581h6.053c.321 0 .767.175 1 .392l5.032 4.66c.233.217.422.653.422.974v4.803h-1.462V6.584c0 .026.026.081.046.1 0 0-5.003-4.637-4.993-4.63a1.321 1.321 0 0 0-.098-.036c.017.001-5.115.003-5.115.003v9.367Z"/><path d="M9.753 1.725v5.38h6.225V5.643h-4.77V1.717l-1.455.008ZM3.89 12.015c.723 0 1.597-.414 2.054-.974l.463-.567c.109-.133.419-.28.59-.28h9.34V8.73h-9.34c-.61 0-1.336.345-1.723.818l-.463.567c-.18.22-.637.437-.92.437H1.997v1.463h1.891Z"/></g></svg>