<svg xmlns="http://www.w3.org/2000/svg" width="18" height="18" fill="none"><g fill="#00AAC3" clip-path="url(#a)"><path d="M15.545 3.43a.731.731 0 1 0-1.034-1.035L8.453 8.453a.731.731 0 0 0 1.034 1.034l6.058-6.057Z"/><path d="M16.841 1.125H12.47a.731.731 0 1 0 0 1.462l2.909.002v2.907a.731.731 0 1 0 1.462 0V1.125Zm-1.426 7.563-.001 1.256v1.288c-.001 1.91 0 2.636.002 2.685v-.083c-.06 1.012-.674 1.58-1.727 1.58H4.293c-1.102 0-1.726-.623-1.726-1.725V4.311c0-1.101.625-1.726 1.726-1.726h5.085a.731.731 0 1 0 0-1.462H4.293c-1.909 0-3.188 1.28-3.188 3.188v9.378c0 1.91 1.278 3.188 3.188 3.188h9.396c1.822 0 3.081-1.166 3.187-2.956v-.287a600.792 600.792 0 0 1 0-2.402l.001-2.543v-.076a.737.737 0 0 0-.73-.758.731.731 0 0 0-.732.73v.103Z"/></g><defs><clipPath id="a"><path fill="#fff" d="M0 0h18v18H0z"/></clipPath></defs></svg>