<svg xmlns="http://www.w3.org/2000/svg" width="18" height="18" fill="none"><g fill="#DF533E" clip-path="url(#a)"><path d="M2.579 13.866c0 .85.688 1.537 1.537 1.537h9.75c.85 0 1.538-.688 1.538-1.537V4.134c0-.85-.689-1.537-1.538-1.537h-9.75c-.849 0-1.537.688-1.537 1.537v9.732ZM4.116 1.134h9.75a3 3 0 0 1 3 3v9.732a3 3 0 0 1-3 3h-9.75a3 3 0 0 1-3-3V4.134a3 3 0 0 1 3-3Z"/><path d="M8.262 10.836a.731.731 0 1 0 1.463 0V4.572a.731.731 0 1 0-1.463 0v6.264ZM9 14.256a.81.81 0 1 0 0-1.62.81.81 0 0 0 0 1.62Z"/></g><defs><clipPath id="a"><path fill="#fff" d="M0 0h18v18H0z"/></clipPath></defs></svg>