<svg xmlns="http://www.w3.org/2000/svg" width="18" height="18" fill="none"><path fill="#676F73" d="M15.545 3.43a.731.731 0 1 0-1.034-1.035L8.453 8.453a.731.731 0 0 0 1.034 1.034l6.058-6.057Z"/><path fill="#676F73" d="M16.841 1.125H12.47a.731.731 0 0 0 0 1.462l2.909.002v2.907a.731.731 0 0 0 1.462 0V1.125Zm-1.426 7.563v1.256l-.001 1.288c0 1.91 0 2.636.002 2.685v-.083c-.06 1.012-.674 1.58-1.727 1.58H4.293c-1.102 0-1.726-.623-1.726-1.725V4.311c0-1.101.625-1.726 1.726-1.726h5.085a.731.731 0 1 0 0-1.462H4.293c-1.909 0-3.188 1.28-3.188 3.188v9.378c0 1.91 1.279 3.188 3.188 3.188h9.396c1.822 0 3.081-1.166 3.187-2.956v-.287a666.031 666.031 0 0 1 0-2.402l.001-2.543v-.076a.738.738 0 0 0-.73-.758.731.731 0 0 0-.732.73v.103Z"/><path fill="url(#a)" fill-rule="evenodd" d="M17.046 15.721h-.093s-.001-.031.013-.037l.045-.016s.008-.002.01-.009c.002-.004.004-.007.01.003l.007.013s.003.007.003.015v.011s0 .005.005.006c.004 0 .005-.006.005-.006v-.011c0-.008.003-.015.003-.015l.006-.013c.006-.01.008-.007.01-.003.002.007.01.01.01.01l.045.015c.014.006.013.037.013.037h-.092Zm-.103 0h-.04s0-.022.01-.026l.032-.011s.005-.002.007-.007c0-.003.002-.005.006.002-.015.009-.015.036-.015.042Zm.205 0c0-.006 0-.033-.015-.042.004-.007.006-.005.007-.002a.014.014 0 0 0 .007.007l.032.01c.01.005.01.027.01.027h-.04Z" clip-rule="evenodd"/><path fill="url(#b)" fill-rule="evenodd" d="M17.08 15.622a.02.02 0 0 0-.004.004c-.004.029-.027.03-.03.03-.003 0-.026-.001-.03-.03a.039.039 0 0 0-.003-.004c-.005-.002-.005-.005-.005-.014v-.028s.005-.026.038-.026.037.026.037.026v.028c0 .009 0 .012-.004.014Zm-.088.022a.022.022 0 0 0-.004.005c-.003.02-.02.02-.02.02s-.016 0-.018-.02l-.004-.005c-.002 0-.002 0-.002-.008v-.02s.003-.016.025-.016c.022 0 .024.016.024.016v.02l-.001.008Zm.154 0a.02.02 0 0 0-.004.005c-.003.02-.02.02-.02.02s-.016 0-.018-.02l-.004-.005c-.002 0-.002 0-.002-.008v-.02s.003-.016.025-.016c.022 0 .024.016.024.016v.02l-.001.008Z" clip-rule="evenodd"/><defs><linearGradient id="a" x1="17.046" x2="17.046" y1="15.655" y2="15.721" gradientUnits="userSpaceOnUse"><stop stop-color="#E78601"/><stop offset="1" stop-color="#D27A02"/></linearGradient><linearGradient id="b" x1="17.046" x2="17.046" y1="15.669" y2="15.554" gradientUnits="userSpaceOnUse"><stop stop-color="#3F3F3F"/><stop offset="1" stop-color="#747474"/></linearGradient></defs></svg>