<svg xmlns="http://www.w3.org/2000/svg" width="18" height="18"><g fill="none" fill-rule="evenodd"><path d="M0 0h18v18H0z"/><path fill="#676F73" fill-rule="nonzero" d="m8.713 12.378-.144.97a.495.495 0 0 0 .502.574h.09a.491.491 0 0 0 .502-.575l-.145-.969h-.805Zm0-1.46h2.067l.185 1.245.145.97a1.952 1.952 0 0 1-1.95 2.249h-.089a1.955 1.955 0 0 1-1.949-2.25l.144-.969.186-1.245h1.261Z"/><path fill="#676F73" fill-rule="nonzero" d="M15.465 6.083c.605 0 1.095.495 1.095 1.094v9.084c0 .642-.52 1.163-1.163 1.163H2.603c-.642 0-1.163-.52-1.163-1.163V7.246c0-.642.52-1.163 1.163-1.163h12.862Zm-.368 4.11h-8.1c-.172 0-.482.148-.59.28l-.464.568c-.457.56-1.33.975-2.053.975h-.987l.001 3.945h12.194l-.001-5.768Zm0-2.647H2.903v3.007h.987c.248 0 .63-.166.84-.355l.08-.082.463-.567c.387-.473 1.113-.818 1.724-.818h8.1V7.546Z"/><path fill="#676F73" fill-rule="nonzero" d="M12.528 5.231a3.769 3.769 0 0 0-6.556-2.537.731.731 0 1 1-1.081-.984 5.231 5.231 0 0 1 9.1 3.522v1.447a.731.731 0 0 1-1.463 0V5.23Z"/></g></svg>