<svg xmlns="http://www.w3.org/2000/svg" width="18" height="18" fill="none"><path fill="#676F73" fill-rule="evenodd" d="m15.505 15.69-1.836-.968-1.837.968.351-2.052-1.486-1.453 2.054-.3.918-1.866.918 1.867 2.053.3-1.486 1.452.351 2.052ZM4.771 8.324l-1.295 6.662c-.165.509-.389.872-.867.873a.872.872 0 0 1-.87-.873V6.24c0-.482.39-.873.87-.873h3.195V3.032c0-.481.39-.873.87-.873h4.652c.48 0 .87.392.87.873v2.334h3.196c.479 0 .87.391.87.873v.907H6.283s-1.297.011-1.513 1.178Zm9.164-4.703v-.59A2.616 2.616 0 0 0 11.326.415H6.674a2.616 2.616 0 0 0-2.609 2.618v.589H2.61A2.616 2.616 0 0 0 0 6.239v8.747a2.616 2.616 0 0 0 2.609 2.618h12.783A2.616 2.616 0 0 0 18 14.986V6.24a2.616 2.616 0 0 0-2.608-2.618h-1.457Z" clip-rule="evenodd"/></svg>