<svg xmlns="http://www.w3.org/2000/svg" width="18" height="18" fill="none"><g clip-path="url(#a)"><path fill="#676F73" d="m12.515 14.704-.673-3.94 2.861-2.793-3.95-.577-1.759-3.576-1.758 3.576-3.946.576 2.856 2.794-.671 3.936 3.519-1.857 3.521 1.861Zm-3.521-.207-4.825 2.546c-.352.186-.583.019-.516-.373l.922-5.397L.67 7.454c-.284-.278-.195-.55.198-.607l5.395-.788L8.676 1.15c.176-.356.46-.356.635 0l2.414 4.91 5.394.787c.394.057.483.329.198.607l-3.904 3.82.922 5.397c.067.392-.164.559-.516.373l-4.825-2.546Z"/></g><defs><clipPath id="a"><path fill="#fff" d="M0 0h18v18H0z"/></clipPath></defs></svg>