<svg xmlns="http://www.w3.org/2000/svg" width="18" height="18" fill="none"><g fill="#676F73"><path d="m10.1 2.029.043.035a.55.55 0 0 0-.081-.03.464.464 0 0 0 .063.004H2.903v13.923h12.195V6.573a.54.54 0 0 0 .004.071.316.316 0 0 0 .055.064l-5.056-4.68Zm6.05 3.606c.227.21.41.63.41.938v10.292c0 .309-.25.559-.558.559H1.999a.559.559 0 0 1-.559-.559V1.135c0-.309.25-.559.56-.559h8.125c.309 0 .743.17.97.38l5.055 4.68Z"/><path d="M9.758 1.714v5.39h6.245V5.64h-4.79V1.707l-1.455.007Zm-1.915 10.32a.731.731 0 0 0-1.034-1.035l-5.144 5.144A.731.731 0 1 0 2.7 17.177l5.144-5.143Z"/><path d="M9.139 10.46v-.73H4.767a.731.731 0 1 0 0 1.462h2.91v2.91a.731.731 0 1 0 1.462 0v-3.64Z"/></g></svg>