<svg width="18" height="18" xmlns="http://www.w3.org/2000/svg"><path d="M4.712 10.886a3.932 3.932 0 013.932 3.932V17H1v-6.114zm12.288 0V17H9.356v-2.182a3.932 3.932 0 013.932-3.932H17zM11.318 1c.334.026.771.154 1.151.522.275.266.406.553.474.897l.025.151.01.323V4.06H17v6.115h-3.712a3.932 3.932 0 01-3.932-3.932l-.001-1.47v.001-1.997h-.71L8.642 4.06h.001v2.183a3.932 3.932 0 01-3.932 3.932H1V4.06l4.042-.001V2.893l.011-.323c.059-.413.185-.744.5-1.048.38-.368.816-.496 1.15-.522h4.615z" fill="#676F73" fill-rule="nonzero"/></svg>