<svg xmlns="http://www.w3.org/2000/svg" width="18" height="18" fill="none"><path fill="#00AAC3" d="M10.158 12.034a.731.731 0 0 1 1.034-1.035l5.143 5.144a.731.731 0 0 1-1.034 1.034l-5.143-5.143Z"/><path fill="#00AAC3" d="M8.861 10.46v-.731h4.372a.731.731 0 1 1 0 1.462h-2.91v2.91a.731.731 0 1 1-1.462 0V10.46Z"/><path fill="#263238" d="m9.73 1.714.027 5.39h6.246V5.64h-4.79l-.021-3.934c-.001-.224-1.464-.217-1.463.007Z"/><path fill="#263238" d="m10.1 2.029.043.035a.547.547 0 0 0-.081-.03.465.465 0 0 0 .063.005H2.903V15.96h12.195V6.573a.54.54 0 0 0 .004.071.316.316 0 0 0 .055.065l-5.056-4.68Zm6.05 3.606c.227.21.41.63.41.938v10.292c0 .309-.25.559-.558.559H1.999a.559.559 0 0 1-.559-.559V1.135c0-.309.25-.559.56-.559h8.125c.309 0 .743.17.97.38l5.055 4.68Z"/><path fill="#263238" d="M9.758 1.714v5.39h6.245V5.64h-4.79V1.707l-1.455.007Z"/></svg>