<svg xmlns="http://www.w3.org/2000/svg" width="18" height="18" fill="none"><g clip-path="url(#a)"><path fill="#094AB2" fill-rule="evenodd" d="M16.27 10.402a2.04 2.04 0 0 1 .451 3.908H6.447a2.37 2.37 0 0 1-2.36-2.365 2.37 2.37 0 0 1 2.57-2.356 2.966 2.966 0 0 1 2.966-3.141 2.97 2.97 0 0 1 2.646 1.61 2.586 2.586 0 0 1 1.42-.421 2.585 2.585 0 0 1 2.582 2.765ZM6.141 9.074a2.897 2.897 0 0 0-2.58 2.871c0 .605.189 1.167.51 1.632H2.46A2.454 2.454 0 0 1 0 11.128a2.453 2.453 0 0 1 2.28-2.442 2.763 2.763 0 0 1 2.703-3.353 2.77 2.77 0 0 1 1.55.47A3.83 3.83 0 0 1 9.958 3.69a3.823 3.823 0 0 1 3.81 3.425l-.082-.002c-.426 0-.844.086-1.23.252a3.488 3.488 0 0 0-2.834-1.441 3.498 3.498 0 0 0-3.482 3.15Z" clip-rule="evenodd"/></g><defs><clipPath id="a"><path fill="#fff" d="M0 0h18v18H0z"/></clipPath></defs></svg>