<svg xmlns="http://www.w3.org/2000/svg" width="18" height="18" fill="none"><g fill="#676F73" fill-rule="evenodd" clip-path="url(#a)" clip-rule="evenodd"><path d="M5.301.683.002 4.086l3.667 2.946 5.333-3.276L5.301.683ZM.002 9.913l5.299 3.468 3.701-3.073-5.333-3.276-3.667 2.88Zm9 .395 3.701 3.073 5.29-3.436-3.658-2.913-5.333 3.276Zm8.99-6.19L12.705.684 9.003 3.756l5.333 3.276 3.657-2.913Z"/><path d="m9.013 10.969-3.712 3.064L3.713 13v1.157l5.3 3.162 5.3-3.162V13l-1.588 1.032-3.712-3.064Z"/></g><defs><clipPath id="a"><path fill="#fff" d="M0 0h18v18H0z"/></clipPath></defs></svg>