<svg xmlns="http://www.w3.org/2000/svg" width="18" height="18" fill="none"><g fill="#676f73"><path d="m10.1 2.029.043.035-.081-.03.063.005H2.903V15.96h12.195V6.573l.004.071a.3.3 0 0 0 .055.065zm6.05 3.606c.227.21.41.63.41.938v10.292c0 .309-.25.559-.558.559H1.999a.56.56 0 0 1-.559-.559V1.135c0-.309.25-.559.56-.559h8.125c.309 0 .743.17.97.38z"/><path d="M9.758 1.714v5.39h6.245V5.64h-4.79V1.707zm-6.176 9.669H2.85v1.462h6.881v-1.462h-6.15Z"/><path d="M11.32 12.123 8.23 9.032a.731.731 0 1 0-1.034 1.034l2.057 2.056-2.057 2.058a.731.731 0 0 0 1.034 1.034z"/></g></svg>