<svg xmlns="http://www.w3.org/2000/svg" width="18" height="18" fill="none"><path fill="#263238" d="m10.1 2.029.043.035a.547.547 0 0 0-.081-.03.465.465 0 0 0 .063.005H2.903V15.96h12.195V6.573a.54.54 0 0 0 .004.071.316.316 0 0 0 .055.065l-5.056-4.68Zm6.05 3.606c.227.21.41.63.41.938v10.292c0 .309-.25.559-.558.559H1.999a.559.559 0 0 1-.559-.559V1.135c0-.309.25-.559.56-.559h8.125c.309 0 .743.17.97.38l5.055 4.68Z"/><path fill="#263238" d="M9.758 1.714v5.39h6.245V5.64h-4.79V1.707l-1.455.007Z"/><path fill="#71BA05" d="M3.582 11.383h-.68v1.462h6.83v-1.462H3.581Z"/><path fill="#71BA05" d="M11.32 12.123 8.23 9.032a.731.731 0 1 0-1.034 1.034l2.057 2.056-2.057 2.058a.731.731 0 0 0 1.034 1.034l3.09-3.091Z"/></svg>