<svg xmlns="http://www.w3.org/2000/svg" width="18" height="18" fill="none"><g fill="#676F73" clip-path="url(#a)"><path d="m10.1 2.029.042.035a.547.547 0 0 0-.08-.03.466.466 0 0 0 .063.005H2.902V15.96h12.195V6.573c0 .028.002.052.005.071a.31.31 0 0 0 .055.065L10.1 2.029Zm6.05 3.606c.226.21.41.63.41.938v10.292c0 .309-.25.559-.559.559H2a.559.559 0 0 1-.56-.559V1.135A.56.56 0 0 1 2 .576h8.126c.308 0 .742.17.969.38l5.056 4.68Z"/><path d="M9.757 1.714v5.39h6.246V5.64h-4.79V1.707l-1.456.007ZM8.278 14.113a.731.731 0 1 0 1.462 0V9.558a.731.731 0 1 0-1.462 0v4.555Z"/><path d="m8.994 13.629 2.056-2.057a.731.731 0 0 1 1.034 1.034L9.51 15.18l-.517.517-.517-.517-2.574-2.574a.731.731 0 0 1 1.034-1.034l2.058 2.057Z"/></g><defs><clipPath id="a"><path fill="#fff" d="M0 0h18v18H0z"/></clipPath></defs></svg>