<svg xmlns="http://www.w3.org/2000/svg" width="18" height="18" fill="none"><g fill="#263238" clip-path="url(#a)"><path d="M7.766 6.388c-.002 0-.07-.027-.081-.03.023.004-4.783.005-4.783.005v9.585h8.307v-6.45a.33.33 0 0 0 .06.135S7.754 6.38 7.766 6.388Zm4.496 2.171c.226.21.41.63.41.938v7.355c0 .308-.25.558-.559.558H2a.559.559 0 0 1-.56-.558V5.459A.56.56 0 0 1 2 4.901h5.749c.309 0 .742.17.969.379l3.545 3.28Z"/><path d="M7.428 5.887V9.95h4.199V8.486H8.883V5.887H7.428Z"/><path d="M5.328 5.452V1.135c0-.309.25-.559.559-.559h5.749c.309 0 .742.17.969.38l3.545 3.279c.226.21.41.63.41.938v7.354a.56.56 0 0 1-.559.56h-3.924v-1.463h3.02V5.173a.33.33 0 0 0 .06.135s-3.515-3.252-3.504-3.244L6.79 2.038v3.414H5.328Z"/><path d="M11.317 1.57v4.057h4.344V4.165h-2.886V1.563l-1.458.007Z"/></g><defs><clipPath id="a"><path fill="#fff" d="M0 0h18v18H0z"/></clipPath></defs></svg>