<svg xmlns="http://www.w3.org/2000/svg" width="18" height="18" fill="none"><g fill="#676F73"><path d="m10.1 2.029.042.035a.547.547 0 0 0-.08-.03.466.466 0 0 0 .063.005H2.902V15.96h12.195V6.573c0 .028.002.052.005.071a.31.31 0 0 0 .055.065L10.1 2.029Zm6.05 3.606c.226.21.41.63.41.938v10.292c0 .309-.25.559-.559.559H2a.559.559 0 0 1-.56-.559V1.135A.56.56 0 0 1 2 .576h8.126c.308 0 .742.17.969.38l5.056 4.68Z"/><path d="M9.757 1.714v5.39h6.246V5.64l-4.79.001V1.707l-1.456.007ZM7.422 9.516a.731.731 0 1 0-1.034 1.034l4.194 4.194a.731.731 0 0 0 1.034-1.034L7.422 9.516Z"/><path d="M6.388 13.71a.731.731 0 1 0 1.034 1.034l4.194-4.194a.731.731 0 1 0-1.034-1.034L6.388 13.71Z"/></g></svg>