<svg xmlns="http://www.w3.org/2000/svg" width="18" height="18" fill="none"><g fill="#263238"><path fill-rule="evenodd" d="m11.212 3.076 2.79 2.583h-2.79V3.076ZM5.526 15.98H2.903V2.056h6.854v5.065h6.803v-.53a1.46 1.46 0 0 0-.41-.938L11.094.973a1.643 1.643 0 0 0-.969-.379H1.999a.559.559 0 0 0-.56.559v15.73a.56.56 0 0 0 .56.559h3.527v-1.463Z" clip-rule="evenodd"/><path d="M13.954 9.476 8.73 14.698a1.093 1.093 0 0 0-.164.326l-.109.763.762-.11a1.107 1.107 0 0 0 .327-.163l5.222-5.222-.816-.816Zm2.409.34a.672.672 0 0 1 0 .951l-5.787 5.787c-.263.262-.773.518-1.14.57l-2.037.293c-.368.052-.623-.203-.57-.57l.292-2.037c.053-.367.308-.878.57-1.14l5.787-5.787a.672.672 0 0 1 .95 0l1.935 1.934Z"/><path d="m7.624 13.93 2.773 2.785 1.036-1.033-2.773-2.784-1.036 1.032Zm3.924-3.996 2.773 2.785 1.036-1.032-2.773-2.785-1.036 1.032Z"/></g></svg>