<svg xmlns="http://www.w3.org/2000/svg" width="18" height="18" fill="none"><g fill="#263238" clip-path="url(#a)"><path d="m12.742 2.55-1.819 1.82-7.513 7.513c-.211.21-.489.766-.53 1.06l-.353 2.538 2.527-.363c.295-.042.85-.32 1.06-.53l9.336-9.336-2.708-2.701Zm3.983 1.923a1.112 1.112 0 0 1 0 1.572l-9.577 9.577c-.434.434-1.278.857-1.886.944l-3.371.483c-.608.088-1.03-.334-.943-.942l.484-3.371c.087-.608.51-1.453.944-1.887l7.513-7.514 2.063-2.063a1.112 1.112 0 0 1 1.573 0l3.2 3.2Z"/><path d="M5.501 15.86 2.66 13.017l-.517-.517 1.034-1.034.517.517 2.931 2.931-1.123.946Zm8.696-8.225L11.371 4.81l-.517-.517 1.034-1.034.517.517 2.786 2.785-.994 1.075Z"/></g><defs><clipPath id="a"><path fill="#fff" d="M0 0h18v18H0z"/></clipPath></defs></svg>