<svg xmlns="http://www.w3.org/2000/svg" width="18" height="18"><g fill="none" fill-rule="evenodd"><path d="M0 0h18v18H0z"/><path fill="#263238" d="M9 3c3.314 0 6.314 2 9 6-2.686 4-5.686 6-9 6s-6.314-2-9-6c2.686-4 5.686-6 9-6zm0 1.46c-2.506 0-4.863 1.415-7.098 4.383L1.785 9l.117.157c2.158 2.865 4.43 4.284 6.84 4.378L9 13.54c2.506 0 4.863-1.415 7.098-4.383L16.214 9l-.116-.157c-2.158-2.865-4.43-4.284-6.84-4.378L9 4.46z"/><path fill="#263238" d="M9 5.5a3.5 3.5 0 1 1 0 7 3.5 3.5 0 0 1 0-7zm0 1.46a2.04 2.04 0 1 0 0 4.08 2.04 2.04 0 0 0 0-4.08z"/><path fill="#263238" d="M14.213 15.247a.724.724 0 0 0 1.02.01l.024-.024a.713.713 0 0 0-.01-1.02L3.55 2.515a.724.724 0 0 0-1.02-.01l-.024.024a.713.713 0 0 0 .01 1.02l11.698 11.698z"/></g></svg>