<svg xmlns="http://www.w3.org/2000/svg" width="18" height="18" fill="none"><g clip-path="url(#a)"><path fill="#676F73" fill-rule="evenodd" d="M5.358 13.902c0-.699-.561-1.26-1.26-1.26-.69 0-1.26.561-1.26 1.26 0 .69.57 1.26 1.26 1.26.699 0 1.26-.57 1.26-1.26Zm4.902 2.028c0-.699-.561-1.26-1.26-1.26s-1.26.561-1.26 1.26.561 1.26 1.26 1.26 1.26-.561 1.26-1.26ZM3.33 9c0-.699-.561-1.26-1.26-1.26S.81 8.301.81 9s.561 1.26 1.26 1.26S3.33 9.699 3.33 9Zm11.832 4.902c0-.699-.57-1.26-1.26-1.26-.699 0-1.26.561-1.26 1.26 0 .69.561 1.26 1.26 1.26.69 0 1.26-.57 1.26-1.26Zm-9.49-9.804a1.58 1.58 0 0 0-1.574-1.575 1.58 1.58 0 0 0-1.575 1.575 1.58 1.58 0 0 0 1.575 1.575 1.58 1.58 0 0 0 1.575-1.575ZM17.19 9c0-.699-.561-1.26-1.26-1.26s-1.26.561-1.26 1.26.561 1.26 1.26 1.26 1.26-.561 1.26-1.26Zm-6.3-6.93a1.89 1.89 0 1 0-3.781.001 1.89 1.89 0 0 0 3.781-.001Zm5.217 2.028a2.214 2.214 0 0 0-2.205-2.205c-1.22 0-2.205.994-2.205 2.205 0 1.22.985 2.205 2.205 2.205a2.208 2.208 0 0 0 2.205-2.205Z" clip-rule="evenodd"/></g><defs><clipPath id="a"><path fill="#fff" d="M0 0h18v18H0z"/></clipPath></defs></svg>