<svg xmlns="http://www.w3.org/2000/svg" width="18" height="18"><g fill="none" fill-rule="evenodd"><path d="M0 0h18v18H0z"/><path fill="#676F73" fill-rule="nonzero" d="m8.713 12.378-.144.97a.495.495 0 0 0 .502.574h.09a.491.491 0 0 0 .502-.575l-.145-.969h-.805Zm0-1.46h2.067l.185 1.245.145.97a1.952 1.952 0 0 1-1.95 2.249h-.089a1.955 1.955 0 0 1-1.949-2.25l.144-.969.186-1.245h1.261Z"/><path fill="#676F73" fill-rule="nonzero" d="M9 .565a5.231 5.231 0 0 1 5.231 5.231v.287h1.234c.605 0 1.095.495 1.095 1.094v9.084c0 .642-.52 1.163-1.163 1.163H2.603c-.642 0-1.163-.52-1.163-1.163V7.246c0-.642.52-1.163 1.163-1.163h1.165v-.287A5.231 5.231 0 0 1 8.785.569Zm6.097 9.628h-8.1c-.147 0-.396.109-.533.223l-.058.058-.463.567c-.422.517-1.199.91-1.884.968l-.17.007h-.986l.001 3.945h12.194l-.001-5.768Zm0-2.647H2.903v3.007h.987c.248 0 .63-.166.84-.355l.08-.082.463-.567c.355-.434.994-.76 1.569-.81l.155-.008h8.1V7.546ZM9 2.027a3.769 3.769 0 0 0-3.769 3.769v.287h7.537v-.287a3.769 3.769 0 0 0-3.574-3.764Z"/></g></svg>