<svg xmlns="http://www.w3.org/2000/svg" width="18" height="18" fill="none"><g fill="#263238" clip-path="url(#a)"><path d="M15.41 13.827c-.055 1.02-.667 1.588-1.72 1.588H4.293c-1.101 0-1.725-.624-1.725-1.726V4.311c0-1.101.625-1.726 1.726-1.726h9.396c1.101 0 1.724.623 1.724 1.725l.008.315a.731.731 0 0 0 1.462-.04l-.008-.295c0-1.89-1.277-3.167-3.186-3.167H4.294c-1.91 0-3.189 1.28-3.189 3.188v9.378c0 1.91 1.28 3.188 3.188 3.188h9.397c1.823 0 3.083-1.169 3.18-2.96.002-.042.006-.474.006-.49a.736.736 0 0 0-.728-.756.731.731 0 0 0-.734.729l-.004.427Z"/><path d="M11.934 9.725a.731.731 0 1 0 0-1.463H4.896a.731.731 0 1 0 0 1.463h7.038Z"/><path d="m14.471 9.009-3.09-3.091a.731.731 0 1 0-1.035 1.034l2.057 2.057-2.057 2.057A.731.731 0 0 0 11.38 12.1l3.091-3.091Z"/></g><defs><clipPath id="a"><path fill="#fff" d="M0 0h18v18H0z"/></clipPath></defs></svg>