<svg xmlns="http://www.w3.org/2000/svg" width="18" height="18" fill="none"><g clip-path="url(#a)"><path fill="#676F73" d="m8.97 10.026 3.478 3.479a.72.72 0 0 0 1.018 0l.016-.016a.72.72 0 0 0 0-1.018l-3.479-3.48 3.475-3.474a.72.72 0 0 0 0-1.018l-.016-.017a.72.72 0 0 0-1.018 0L8.969 7.957 5.507 4.495a.72.72 0 0 0-1.019 0l-.015.016a.72.72 0 0 0 0 1.018l3.462 3.462-3.462 3.462a.72.72 0 0 0 0 1.018l.016.017a.72.72 0 0 0 1.018 0l3.462-3.462Z"/></g><defs><clipPath id="a"><path fill="#fff" d="M0 0h18v18H0z"/></clipPath></defs></svg>