<svg xmlns="http://www.w3.org/2000/svg" width="32" height="32" fill="none"><path fill="#71BA05" fill-rule="evenodd" d="M3.52 0A3.526 3.526 0 0 0 0 3.52v24.96C0 30.42 1.58 32 3.52 32h24.96c1.94 0 3.52-1.58 3.52-3.52V3.52C32 1.58 30.42 0 28.48 0H3.52Zm0 1.26h24.96a2.24 2.24 0 0 1 2.26 2.26v24.96a2.24 2.24 0 0 1-2.26 2.26H3.52a2.24 2.24 0 0 1-2.26-2.26V3.52a2.24 2.24 0 0 1 2.26-2.26Zm12.75 9.784a.72.72 0 0 0-.459.169L10 16.078l5.811 4.866a.724.724 0 1 0 .93-1.113l-3.81-3.188H22a.655.655 0 1 0 0-1.312h-8.864l3.604-3.006a.725.725 0 0 0-.47-1.28Z" clip-rule="evenodd"/></svg>