<svg xmlns="http://www.w3.org/2000/svg" width="32" height="32" fill="none"><g clip-path="url(#a)"><path fill="#676F73" d="m15.945 17.823 6.185 6.185c.5.5 1.31.5 1.81 0l.028-.028c.5-.5.5-1.31 0-1.81l-6.184-6.185 6.177-6.177c.5-.5.5-1.31 0-1.81l-.03-.03c-.5-.5-1.31-.5-1.81 0l-6.177 6.178L9.79 7.99c-.5-.5-1.31-.5-1.81 0l-.029.028c-.5.5-.5 1.31 0 1.81l6.155 6.155L7.95 22.14c-.5.5-.5 1.31 0 1.81l.03.03c.5.5 1.31.5 1.81 0l6.154-6.155Z"/></g><defs><clipPath id="a"><path fill="#fff" d="M0 0h32v32H0z"/></clipPath></defs></svg>