<svg xmlns="http://www.w3.org/2000/svg" width="18" height="18"><g fill="none" fill-rule="evenodd"><path fill="#676F73" fill-rule="nonzero" d="M9 3c3.314 0 6.314 2 9 6-2.686 4-5.686 6-9 6s-6.314-2-9-6c2.686-4 5.686-6 9-6zm0 1.55c-2.475 0-4.809 1.401-7.028 4.35l-.075.1.075.1c2.143 2.847 4.392 4.252 6.772 4.345L9 13.45c2.475 0 4.809-1.401 7.028-4.35l.074-.1-.074-.1c-2.143-2.847-4.392-4.252-6.772-4.345L9 4.55z"/><path fill="#676F73" fill-rule="nonzero" d="M9 5.5a3.5 3.5 0 1 1 0 7 3.5 3.5 0 0 1 0-7zm0 1.55a1.95 1.95 0 1 0 0 3.9 1.95 1.95 0 0 0 0-3.9z"/><path d="M0 0h18v18H0z"/></g></svg>