<svg xmlns="http://www.w3.org/2000/svg" width="18" height="18"><g fill="none" fill-rule="evenodd"><path d="M0 0h18v18H0z"/><path fill="#676F73" fill-rule="nonzero" d="M11.279 3.006C14.987 3.006 18 5.978 18 9.652c0 3.638-2.953 6.587-6.61 6.646H5.181C2.323 16.299 0 14.009 0 11.173 0 8.365 2.277 6.09 5.095 6.045h.541l.004-.007c.013-.026.08-.143.32-.45a6.743 6.743 0 0 1 5.319-2.582zm0 1.458a5.285 5.285 0 0 0-4.17 2.022l-.036.046a5.32 5.32 0 0 0-.139.187l-.007.01-.35.774H5.182c-2.059 0-3.723 1.645-3.723 3.669 0 2.003 1.631 3.636 3.661 3.668h6.16c2.91 0 5.263-2.325 5.263-5.188 0-2.862-2.354-5.188-5.263-5.188z"/><path fill="#676F73" fill-rule="nonzero" d="M12.229 3.5v5.271h5.53l.019 1.458H10.77V3.5z"/></g></svg>