<svg xmlns="http://www.w3.org/2000/svg" width="32" height="32"><g fill="none" fill-rule="evenodd"><circle cx="16" cy="16" r="16" fill="#72BA04"/><path fill="#FFF" fill-rule="nonzero" d="M16 3.724C9.22 3.724 3.724 9.22 3.724 16c0 6.78 5.496 12.276 12.276 12.276 6.78 0 12.276-5.496 12.276-12.276C28.276 9.22 22.78 3.724 16 3.724Zm0 1.28c6.073 0 10.996 4.923 10.996 10.996S22.073 26.996 16 26.996 5.004 22.073 5.004 16 9.927 5.004 16 5.004Z"/><path fill="#FFF" d="M16 10.91a2.9 2.9 0 0 1 2.057.851 2.9 2.9 0 0 1 .852 2.057 2.9 2.9 0 0 1-1.454 2.52v3.298a1.455 1.455 0 1 1-2.91 0v-3.298A2.91 2.91 0 0 1 16 10.909Z"/></g></svg>