<svg width="314" height="220" viewBox="0 0 314 220" fill="none" xmlns="http://www.w3.org/2000/svg">
<g clip-path="url(#clip0_381958_13)">
<path d="M289.927 132.944L312.845 146.018" stroke="#D4D6D7" stroke-width="1.3"/>
<path d="M141.939 219.236L312.845 119.869" stroke="#D4D6D7" stroke-width="1.3"/>
<path d="M67.9457 149.941L188.431 219.236" stroke="#D4D6D7" stroke-width="1.3"/>
<path d="M90.3768 135.706L90.9146 135.707L90.8391 162.532L164.448 204.961L164.522 179.05L165.374 179.052L165.297 205.937L164.875 206.188L89.9868 163.023L90.0628 135.891L90.3768 135.706Z" fill="#011722"/>
<path d="M114.145 121.868L90.0638 135.887L90.0618 136.376L164.949 179.542L224.46 144.97L224.463 144.481C224.456 144.477 224.45 144.474 224.447 144.472C216.448 139.816 204.45 132.831 188.452 123.519C177.907 117.69 165.672 114.624 151.744 114.314C137.818 114.005 125.283 116.522 114.145 121.868ZM152.402 115.181C165.916 115.571 177.791 118.597 188.031 124.258L223.19 144.724L164.947 178.56L91.3368 136.129L114.544 122.619C125.527 117.348 137.929 114.857 151.725 115.164L152.402 115.181Z" fill="#011722"/>
<path d="M173.692 38.7842L134.315 16.0885L74.2974 50.9104L111.318 72.1142C122.658 78.3208 135.403 81.4216 149.554 81.4216L150.227 81.4192C164.109 81.3224 176.63 78.2223 187.783 72.1182L221.183 52.7858L227.271 56.3885L194.368 75.3716C183.702 81.9303 178.36 89.4132 178.394 97.8187C178.428 106.223 183.829 113.705 194.536 120.257L230.991 141.226L290.504 106.652L290.508 106.159L251.765 83.9407L264.565 76.5544C268.851 73.3114 271.002 70.0582 271.016 66.7569C271.029 63.4549 268.903 60.2005 264.686 56.9862L219.622 31.0504C213.923 28.7233 208.474 27.5333 203.223 27.4575L202.715 27.4537C197.64 27.4501 192.755 28.4928 188.064 30.5809L173.692 38.7842ZM75.9998 50.905L134.317 17.0699L173.69 39.765L188.449 31.3378C193.146 29.2495 198.078 28.2333 203.211 28.3073C208.351 28.3814 213.696 29.5488 219.248 31.8119L264.215 57.6921C268.195 60.7301 270.176 63.7632 270.164 66.7535C270.152 69.7445 268.145 72.7789 264.095 75.848L250.06 83.9435L289.232 106.408L230.988 140.243L194.971 119.526C184.502 113.12 179.278 105.883 179.245 97.8153C179.213 89.7482 184.378 82.5128 194.805 76.1013L228.956 56.398L221.188 51.801L187.365 71.378C176.17 77.5052 163.565 80.5717 149.554 80.5717L148.888 80.5694C135.143 80.4736 122.761 77.4078 111.735 71.373L75.9998 50.905Z" fill="#011722"/>
<path d="M290.508 106.412V133.297L230.996 167.824L230.949 167.855L230.489 167.585V140.735H231.34L231.34 166.64L289.656 132.807L289.656 106.412H290.508Z" fill="#011722"/>
<path d="M224.242 163.177L231.195 167.007L230.784 167.752L223.83 163.921L224.242 163.177Z" fill="#011722"/>
<path d="M224.461 144.485V144.513V171.614L164.879 206.185L164.449 205.945V202.136H165.3L165.3 204.956L223.61 171.125V145.454L219.911 147.552L219.49 146.813L224.014 144.249L224.038 144.235L224.461 144.485Z" fill="#011722"/>
<path d="M271.016 66.6423V95.4461H270.165V66.6423H271.016Z" fill="#011722"/>
<path d="M75.5742 50.908V77.0314L111.346 98.0058L119.809 101.976C130.395 105.399 140.289 107.109 149.49 107.11C158.482 107.111 168.135 105.479 178.45 102.212L179.17 101.981L179.433 102.79C168.766 106.237 158.785 107.961 149.49 107.96C140.402 107.959 130.657 106.309 120.211 102.994L119.497 102.765L110.949 98.7568L74.7229 77.5175V50.908H75.5742Z" fill="#011722"/>
<path fill-rule="evenodd" clip-rule="evenodd" d="M1.80969 36.8452V63.6112L76.4582 106.794V79.9199L1.80969 36.8452Z" fill="#9ADEFD"/>
<path d="M0.5 36.0917V64.1137L75.7858 107.851L75.9992 107.971L77.7678 106.942V78.8214L2.17766 35.0176L0.5 36.0917ZM3.31559 38.9373L74.9521 80.4492V104.105L3.31559 62.487V38.9373Z" fill="#011722"/>
<path fill-rule="evenodd" clip-rule="evenodd" d="M113.128 47.3049V67.2459L113.052 73.1036C112.966 76.9774 111.417 80.8982 108.406 84.8661C105.394 88.8339 101.729 91.8419 97.4108 93.8899L76.4581 106.141V99.5364V79.4966" fill="#1683FB"/>
<path d="M114.437 45.3438V67.3527L114.361 73.2475C114.266 77.4575 112.584 81.6739 109.359 85.8813C106.269 89.9132 102.517 93.0096 98.1161 95.1574L97.7462 95.3335L76.0143 107.961L74.4938 107.099V79.6348H77.3326L77.3325 103.932L96.3675 92.8669L96.4756 92.8104C100.646 90.8516 104.184 87.9766 107.101 84.1707C109.901 80.5177 111.358 76.9623 111.512 73.5027L111.522 73.1977L111.598 67.3345V45.3438H114.437Z" fill="#011722"/>
<path fill-rule="evenodd" clip-rule="evenodd" d="M1.80969 37.0752L7.42388 33.8316L61.0465 2.8512L98.9835 24.6384C108.413 31.1493 113.128 38.3655 113.128 46.2869C113.128 54.2084 107.893 61.3649 97.4234 67.7565L76.2806 79.9915L1.80969 37.0752Z" fill="#71BA05"/>
<path d="M99.6247 23.0895L61.0777 0.890015L0.5 35.9869L0.511138 37.5137L76.2775 81.299L98.0725 68.6512C108.922 62.0095 114.437 54.4483 114.437 45.961C114.437 37.5193 109.476 29.9052 99.7234 23.152L99.6247 23.0895ZM61.0812 4.1337L98.1687 25.4925L98.121 25.4597C107.18 31.7323 111.625 38.555 111.625 45.961L111.623 46.2175C111.51 53.4785 106.58 60.1493 96.6311 66.2401L76.2746 78.052L4.7946 36.7444L61.0812 4.1337Z" fill="#011722"/>
<path d="M85.6255 55.1497C91.4118 55.1497 96.1025 50.4667 96.1025 44.69C96.1025 38.9133 91.4118 34.2303 85.6255 34.2303C79.8393 34.2303 75.1486 38.9133 75.1486 44.69C75.1486 50.4667 79.8393 55.1497 85.6255 55.1497Z" fill="#72BA04"/>
<path fill-rule="evenodd" clip-rule="evenodd" d="M70.284 36.4613C70.9873 37.1634 71.3278 38.0946 71.3098 39.0327C71.2919 39.9708 70.9155 40.9158 70.1848 41.6452C69.4542 42.3746 68.5077 42.7504 67.568 42.7683C67.2485 42.7744 66.9297 42.7391 66.6205 42.6623L63.5702 45.7065C62.867 46.4085 61.7268 46.4085 61.0236 45.7065C60.3204 45.0044 60.3204 43.8661 61.0236 43.164L64.073 40.1196C63.7693 38.9029 64.1123 37.5381 65.0916 36.5604C66.5528 35.1015 68.8776 35.0572 70.284 36.4613Z" fill="#011722"/>
</g>
<defs>
<clipPath id="clip0_381958_13">
<rect width="313" height="219" fill="white" transform="translate(0.5 0.890015)"/>
</clipPath>
</defs>
</svg>
